<mxfile host="app.diagrams.net" modified="2024-07-02T17:21:11.796Z" agent="Mozilla/5.0 (Macintosh; Intel Mac OS X 10_15_7) AppleWebKit/537.36 (KHTML, like Gecko) Chrome/126.0.0.0 Safari/537.36" version="24.6.4" etag="jlKeesKS0EWn1PiiA5QF" type="device">
  <diagram id="4ba41118-5684-a330-8758-9f3175b1c661" name="Web Application">
    <mxGraphModel dx="1562" dy="882" grid="1" gridSize="10" guides="1" tooltips="1" connect="1" arrows="1" fold="1" page="1" pageScale="1" pageWidth="1100" pageHeight="850" math="0" shadow="0">
      <root>
        <mxCell id="0" />
        <mxCell id="1" parent="0" />
        <mxCell id="6b7f3959463082b2-1" value="&lt;b&gt;Google &lt;/b&gt;Cloud Platform" style="fillColor=#F6F6F6;strokeColor=none;shadow=0;gradientColor=none;fontSize=14;align=left;spacing=10;fontColor=#717171;9E9E9E;verticalAlign=top;spacingTop=-4;fontStyle=0;spacingLeft=40;html=1;movable=1;resizable=1;rotatable=1;deletable=1;editable=1;locked=0;connectable=1;" parent="1" vertex="1">
          <mxGeometry x="131" y="100" width="760" height="590" as="geometry" />
        </mxCell>
        <mxCell id="6b7f3959463082b2-2" value="" style="shape=mxgraph.gcp2.google_cloud_platform;fillColor=#F6F6F6;strokeColor=none;shadow=0;gradientColor=none;" parent="6b7f3959463082b2-1" vertex="1">
          <mxGeometry width="23" height="20" relative="1" as="geometry">
            <mxPoint x="20" y="10" as="offset" />
          </mxGeometry>
        </mxCell>
        <mxCell id="6b7f3959463082b2-27" value="" style="strokeColor=#dddddd;fillColor=#ffffff;shadow=1;strokeWidth=1;rounded=1;absoluteArcSize=1;arcSize=2;fontSize=17;fontColor=#000000;align=right;html=1;" parent="6b7f3959463082b2-1" vertex="1">
          <mxGeometry x="170" y="210" width="460" height="210" as="geometry" />
        </mxCell>
        <mxCell id="zZrN_HtlgV220wjShuPh-1" value="" style="aspect=fixed;sketch=0;html=1;dashed=0;whitespace=wrap;verticalLabelPosition=bottom;verticalAlign=top;fillColor=#2875E2;strokeColor=#ffffff;points=[[0.005,0.63,0],[0.1,0.2,0],[0.9,0.2,0],[0.5,0,0],[0.995,0.63,0],[0.72,0.99,0],[0.5,1,0],[0.28,0.99,0]];shape=mxgraph.kubernetes.icon2;prIcon=pod" vertex="1" parent="6b7f3959463082b2-1">
          <mxGeometry x="420" y="289.8" width="40" height="38.4" as="geometry" />
        </mxCell>
        <mxCell id="zZrN_HtlgV220wjShuPh-6" value="" style="strokeColor=#dddddd;shadow=1;strokeWidth=1;rounded=1;absoluteArcSize=1;arcSize=2;" vertex="1" parent="6b7f3959463082b2-1">
          <mxGeometry x="415" y="107" width="130" height="60" as="geometry" />
        </mxCell>
        <mxCell id="zZrN_HtlgV220wjShuPh-7" value="Artifact&#xa;Registry" style="editableCssRules=.*;html=1;fontColor=#999999;shape=image;verticalLabelPosition=middle;verticalAlign=middle;labelPosition=right;align=left;spacingLeft=20;part=1;points=[];imageAspect=0;image=data:image/svg+xml,PHN2ZyB4bWxucz0iaHR0cDovL3d3dy53My5vcmcvMjAwMC9zdmciIHhtbG5zOnY9Imh0dHBzOi8vdmVjdGEuaW8vbmFubyIgd2lkdGg9IjIxLjk5OTAwMDU0OTMxNjQwNiIgaGVpZ2h0PSIyMC4zOTM5OTkwOTk3MzE0NDUiIHZpZXdCb3g9IjAgMCAyMS45OTkwMDA1NDkzMTY0MDYgMjAuMzkzOTk5MDk5NzMxNDQ1Ij4mI3hhOwk8c3R5bGUgdHlwZT0idGV4dC9jc3MiPiYjeGE7CS5zdDB7ZmlsbDojNDI4NWY0O2ZpbGwtcnVsZTpldmVub2RkfSYjeGE7CTwvc3R5bGU+JiN4YTsJPHBhdGggY2xhc3M9InN0MCIgZD0iTTUgMHYyLjQ1OEwxLjk5OSA0LjE5N3YxMi4wMUw1IDE3LjkzOHYyLjQ1NmwtNS0yLjg4N1YyLjg4NnptMTIgMGw0Ljk5OSAyLjg4NnYxNC42MjFMMTcgMjAuMzk0di0yLjQ1NmwzLTEuNzMxVjQuMTk3bC0zLTEuNzM5em0tNi4wMTYgNi42NzNsMi45NDctMS42NDYtMi45NDctMS42NDYtMi45NDcgMS42NDZ6bTMuMjY4LTEuMDk2bC0yLjg3MSAxLjY3OHYzLjI4N2wyLjg3MS0xLjY3NnpNNy43NzMgOC44NjZsMi44NzEgMS42NzRWNy4yNTZMNy43NzMgNS41Nzd6bS0uMjEyIDMuODc4bDIuODItMS42NDYtMi44Mi0xLjY0Ni0yLjgyIDEuNjQ2em0zLjEzMi0xLjA5OGwtMi44NzEgMS42Nzh2My4yODdsMi44NzEtMS42NzZ6bS02LjI2NCAzLjI4OUw3LjMgMTYuNjA5di0zLjI4NWwtMi44NzEtMS42Nzl6bTEwLjAyOS0yLjE5MWwyLjgyLTEuNjQ2LTIuODItMS42NDYtMi44MiAxLjY0NnptMy4xMzItMS4wOThsLTIuODcxIDEuNjc4djMuMjg3bDIuODcxLTEuNjc2em0tNi4yNjQgMy4yODlsMi44NzEgMS42NzR2LTMuMjg1bC0yLjg3MS0xLjY3OXoiLz4mI3hhOzwvc3ZnPg==;" vertex="1" parent="zZrN_HtlgV220wjShuPh-6">
          <mxGeometry width="30" height="27" relative="1" as="geometry">
            <mxPoint x="15" y="16" as="offset" />
          </mxGeometry>
        </mxCell>
        <mxCell id="zZrN_HtlgV220wjShuPh-9" value="" style="strokeColor=#dddddd;shadow=1;strokeWidth=1;rounded=1;absoluteArcSize=1;arcSize=2;" vertex="1" parent="6b7f3959463082b2-1">
          <mxGeometry x="420" y="460" width="120" height="60" as="geometry" />
        </mxCell>
        <mxCell id="zZrN_HtlgV220wjShuPh-10" value="Firestore" style="editableCssRules=.*;html=1;fontColor=#999999;shape=image;verticalLabelPosition=middle;verticalAlign=middle;labelPosition=right;align=left;spacingLeft=20;part=1;points=[];imageAspect=0;image=data:image/svg+xml,PHN2ZyB4bWxucz0iaHR0cDovL3d3dy53My5vcmcvMjAwMC9zdmciIHhtbG5zOnY9Imh0dHBzOi8vdmVjdGEuaW8vbmFubyIgd2lkdGg9IjMyMy45MDU2MTAzOTg2NzUxNSIgaGVpZ2h0PSIzNzYuNDIyMjk0OTYzNjg0MDciIHZpZXdCb3g9Ii0wLjA5NzAwMDAwMjg2MTAyMjk1IDAuMjg3OTk5OTg3NjAyMjMzOSA4NS42OTk5OTY5NDgyNDIxOSA5OS41OTUwMDEyMjA3MDMxMiI+JiN4YTs8c3R5bGUgdHlwZT0idGV4dC9jc3MiPiYjeGE7CS5zdDB7ZmlsbDojYWVjYmZhO30mI3hhOwkuc3Qxe2ZpbGw6IzY2OWRmNjt9JiN4YTsJLnN0MntmaWxsOiM0Mjg1ZjQ7fSYjeGE7PC9zdHlsZT4mI3hhOwk8cGF0aCBjbGFzcz0ic3QwIiBkPSJNLS4wOTcgNzUuODE1VjU1Ljg3NGw0Mi44NS0yMC4xODN2MTkuMDd6bTAtMzUuNDAzVjIwLjQ3MUw0Mi43NTMuMjg4djE5LjA3eiIvPiYjeGE7CTxwYXRoIGNsYXNzPSJzdDEiIGQ9Ik04NS42MDMgNzUuODE1VjU1Ljg3NGwtNDIuODUtMjAuMTgzdjE5LjA3em0wLTM1LjQwM1YyMC40NzFMNDIuNzUzLjI4OHYxOS4wN3oiLz4mI3hhOwk8cGF0aCBjbGFzcz0ic3QyIiBkPSJNNDIuNzUzIDgwLjMxNGwxNi4yMTctNy41MjUgMjEuMDg0IDkuNzE3LTM3LjMwMSAxNy4zNzd6Ii8+JiN4YTs8L3N2Zz4=;" vertex="1" parent="zZrN_HtlgV220wjShuPh-9">
          <mxGeometry width="26" height="30" relative="1" as="geometry">
            <mxPoint x="17" y="15" as="offset" />
          </mxGeometry>
        </mxCell>
        <mxCell id="zZrN_HtlgV220wjShuPh-15" value="API Pod&lt;div&gt;container&lt;/div&gt;" style="text;html=1;align=center;verticalAlign=middle;resizable=0;points=[];autosize=1;strokeColor=none;fillColor=none;" vertex="1" parent="6b7f3959463082b2-1">
          <mxGeometry x="460" y="295" width="70" height="40" as="geometry" />
        </mxCell>
        <mxCell id="_BYcXfdBTYg5R9oibL-n-5" style="edgeStyle=orthogonalEdgeStyle;rounded=0;html=1;startArrow=none;startFill=1;endArrow=blockThin;endFill=1;jettySize=auto;orthogonalLoop=1;strokeWidth=2;fontSize=10;fontColor=#999999;align=center;dashed=0;strokeColor=#4284F3;labelBackgroundColor=none;endSize=4;startSize=4;" edge="1" parent="6b7f3959463082b2-1">
          <mxGeometry relative="1" as="geometry">
            <mxPoint x="480" y="170" as="sourcePoint" />
            <mxPoint x="480" y="210" as="targetPoint" />
            <Array as="points">
              <mxPoint x="479.5" y="189" />
              <mxPoint x="479.5" y="189" />
            </Array>
          </mxGeometry>
        </mxCell>
        <mxCell id="_BYcXfdBTYg5R9oibL-n-6" style="edgeStyle=elbowEdgeStyle;rounded=0;html=1;startArrow=none;startFill=1;endArrow=blockThin;endFill=1;jettySize=auto;orthogonalLoop=1;strokeWidth=2;fontSize=10;fontColor=#999999;align=center;dashed=0;strokeColor=#4284F3;labelBackgroundColor=none;endSize=4;startSize=4;elbow=vertical;entryX=0.522;entryY=0.483;entryDx=0;entryDy=0;entryPerimeter=0;" edge="1" parent="6b7f3959463082b2-1" target="6b7f3959463082b2-27">
          <mxGeometry relative="1" as="geometry">
            <mxPoint x="240" y="312" as="sourcePoint" />
            <mxPoint x="320" y="311.5" as="targetPoint" />
          </mxGeometry>
        </mxCell>
        <mxCell id="_BYcXfdBTYg5R9oibL-n-9" value="" style="editableCssRules=.*;html=1;shape=image;verticalLabelPosition=bottom;labelBackgroundColor=#ffffff;verticalAlign=top;aspect=fixed;imageAspect=0;image=data:image/svg+xml,PHN2ZyB4bWxucz0iaHR0cDovL3d3dy53My5vcmcvMjAwMC9zdmciIHhtbG5zOnY9Imh0dHBzOi8vdmVjdGEuaW8vbmFubyIgd2lkdGg9IjE2LjQyMDAwMDA3NjI5Mzk0NSIgaGVpZ2h0PSIyMC4wNDk5OTkyMzcwNjA1NDciIGZpbGwtcnVsZT0iZXZlbm9kZCIgdmlld0JveD0iMCAwIDE2LjQyMDAwMDA3NjI5Mzk0NSAyMC4wNDk5OTkyMzcwNjA1NDciPiYjeGE7CTxzdHlsZSB0eXBlPSJ0ZXh0L2NzcyI+JiN4YTsJLnN0MHtmaWxsOiM0Mjg1ZjQ7fSYjeGE7CS5zdDF7ZmlsbDojNjY5ZGY2O30mI3hhOwk8L3N0eWxlPiYjeGE7CTxwYXRoIGNsYXNzPSJzdDEiIGQ9Ik04LjIxIDBMMCAzLjQydjUuNjNjMCA1LjA2IDMuNSA5LjggOC4yMSAxMSA0LjcxLTEuMTUgOC4yMS01Ljg5IDguMjEtMTAuOTVWMy40MnptMCAzLjc5YTIuNjMgMi42MyAwIDAgMSAxLjAwNSA1LjA2QTIuNjMgMi42MyAwIDAgMSA2LjM1IDQuNTZhMi42MyAyLjYzIDAgMCAxIDEuODYtLjc3em00LjExIDExLjE1YTguNjQgOC42NCAwIDAgMS00LjExIDIuOTMgOC42NCA4LjY0IDAgMCAxLTQuMTEtMi45M3YtMi4yNWMwLTEuNjcgMi43NC0yLjUyIDQuMTEtMi41MnM0LjExLjg1IDQuMTEgMi41MnoiLz4mI3hhOwk8cGF0aCBjbGFzcz0ic3QwIiBkPSJNOC4yMSAwdjMuNzlhMi42MyAyLjYzIDAgMSAxIDAgNS4yNnYxLjEyYzEuMzcgMCA0LjExLjg1IDQuMTEgMi41MnYyLjI1YTguNjQgOC42NCAwIDAgMS00LjExIDIuOTNWMjBjNC43MS0xLjE1IDguMjEtNS44OSA4LjIxLTEwLjk1VjMuNDJ6Ii8+JiN4YTs8L3N2Zz4=;" vertex="1" parent="6b7f3959463082b2-1">
          <mxGeometry x="583" y="340" width="24" height="30" as="geometry" />
        </mxCell>
        <mxCell id="_BYcXfdBTYg5R9oibL-n-10" value="service&lt;div&gt;account&lt;/div&gt;" style="text;html=1;align=center;verticalAlign=middle;resizable=0;points=[];autosize=1;strokeColor=none;fillColor=none;" vertex="1" parent="6b7f3959463082b2-1">
          <mxGeometry x="560" y="370" width="70" height="40" as="geometry" />
        </mxCell>
        <mxCell id="_BYcXfdBTYg5R9oibL-n-11" value="service&lt;div&gt;account&lt;/div&gt;" style="text;html=1;align=center;verticalAlign=middle;resizable=0;points=[];autosize=1;strokeColor=none;fillColor=none;" vertex="1" parent="6b7f3959463082b2-1">
          <mxGeometry x="690" y="67" width="70" height="40" as="geometry" />
        </mxCell>
        <mxCell id="_BYcXfdBTYg5R9oibL-n-8" value="" style="editableCssRules=.*;html=1;shape=image;verticalLabelPosition=bottom;labelBackgroundColor=#ffffff;verticalAlign=top;aspect=fixed;imageAspect=0;image=data:image/svg+xml,PHN2ZyB4bWxucz0iaHR0cDovL3d3dy53My5vcmcvMjAwMC9zdmciIHhtbG5zOnY9Imh0dHBzOi8vdmVjdGEuaW8vbmFubyIgd2lkdGg9IjE2LjQyMDAwMDA3NjI5Mzk0NSIgaGVpZ2h0PSIyMC4wNDk5OTkyMzcwNjA1NDciIGZpbGwtcnVsZT0iZXZlbm9kZCIgdmlld0JveD0iMCAwIDE2LjQyMDAwMDA3NjI5Mzk0NSAyMC4wNDk5OTkyMzcwNjA1NDciPiYjeGE7CTxzdHlsZSB0eXBlPSJ0ZXh0L2NzcyI+JiN4YTsJLnN0MHtmaWxsOiM0Mjg1ZjQ7fSYjeGE7CS5zdDF7ZmlsbDojNjY5ZGY2O30mI3hhOwk8L3N0eWxlPiYjeGE7CTxwYXRoIGNsYXNzPSJzdDEiIGQ9Ik04LjIxIDBMMCAzLjQydjUuNjNjMCA1LjA2IDMuNSA5LjggOC4yMSAxMSA0LjcxLTEuMTUgOC4yMS01Ljg5IDguMjEtMTAuOTVWMy40MnptMCAzLjc5YTIuNjMgMi42MyAwIDAgMSAxLjAwNSA1LjA2QTIuNjMgMi42MyAwIDAgMSA2LjM1IDQuNTZhMi42MyAyLjYzIDAgMCAxIDEuODYtLjc3em00LjExIDExLjE1YTguNjQgOC42NCAwIDAgMS00LjExIDIuOTMgOC42NCA4LjY0IDAgMCAxLTQuMTEtMi45M3YtMi4yNWMwLTEuNjcgMi43NC0yLjUyIDQuMTEtMi41MnM0LjExLjg1IDQuMTEgMi41MnoiLz4mI3hhOwk8cGF0aCBjbGFzcz0ic3QwIiBkPSJNOC4yMSAwdjMuNzlhMi42MyAyLjYzIDAgMSAxIDAgNS4yNnYxLjEyYzEuMzcgMCA0LjExLjg1IDQuMTEgMi41MnYyLjI1YTguNjQgOC42NCAwIDAgMS00LjExIDIuOTNWMjBjNC43MS0xLjE1IDguMjEtNS44OSA4LjIxLTEwLjk1VjMuNDJ6Ii8+JiN4YTs8L3N2Zz4=;" vertex="1" parent="6b7f3959463082b2-1">
          <mxGeometry x="716" y="102" width="24" height="30" as="geometry" />
        </mxCell>
        <mxCell id="_BYcXfdBTYg5R9oibL-n-16" value="" style="aspect=fixed;sketch=0;html=1;dashed=0;whitespace=wrap;verticalLabelPosition=bottom;verticalAlign=top;fillColor=#2875E2;strokeColor=#ffffff;points=[[0.005,0.63,0],[0.1,0.2,0],[0.9,0.2,0],[0.5,0,0],[0.995,0.63,0],[0.72,0.99,0],[0.5,1,0],[0.28,0.99,0]];shape=mxgraph.kubernetes.icon2;prIcon=svc;shadow=0;align=left;spacingLeft=40;spacingTop=-4;spacing=10;fontFamily=Helvetica;fontSize=14;fontColor=#717171;fontStyle=0;resizable=0;" vertex="1" parent="6b7f3959463082b2-1">
          <mxGeometry x="187" y="287" width="50" height="48" as="geometry" />
        </mxCell>
        <mxCell id="_BYcXfdBTYg5R9oibL-n-17" style="edgeStyle=orthogonalEdgeStyle;rounded=0;html=1;startArrow=none;startFill=1;endArrow=blockThin;endFill=1;jettySize=auto;orthogonalLoop=1;strokeWidth=2;fontSize=10;fontColor=#999999;align=center;dashed=0;strokeColor=#4284F3;labelBackgroundColor=none;endSize=4;startSize=4;" edge="1" parent="6b7f3959463082b2-1">
          <mxGeometry relative="1" as="geometry">
            <mxPoint x="479.5" y="420" as="sourcePoint" />
            <mxPoint x="479.5" y="460" as="targetPoint" />
            <Array as="points">
              <mxPoint x="479" y="439" />
              <mxPoint x="479" y="439" />
            </Array>
          </mxGeometry>
        </mxCell>
        <mxCell id="_BYcXfdBTYg5R9oibL-n-24" value="Google Kubernetes&#xa;Engine" style="sketch=0;html=1;verticalAlign=top;labelPosition=center;verticalLabelPosition=bottom;align=center;spacingTop=-6;fontSize=11;fontStyle=1;fontColor=#999999;shape=image;aspect=fixed;imageAspect=0;image=data:image/svg+xml,PHN2ZyB4bWxucz0iaHR0cDovL3d3dy53My5vcmcvMjAwMC9zdmciIHhtbG5zOnY9Imh0dHBzOi8vdmVjdGEuaW8vbmFubyIgd2lkdGg9IjMyOS45MjU5OTcyMzE3OTM4IiBoZWlnaHQ9IjM3OC4yODQ5OTAzMTEyNzg4IiB2aWV3Qm94PSIwIDAgODcuMjkyOTk5MjY3NTc4MTIgMTAwLjA4Nzk5NzQzNjUyMzQ0Ij4mI3hhOzxzdHlsZSB0eXBlPSJ0ZXh0L2NzcyI+JiN4YTsJLnN0MHtmaWxsOiNhZWNiZmE7fSYjeGE7CS5zdDF7ZmlsbDojNjY5ZGY2O30mI3hhOwkuc3Qye2ZpbGw6IzQyODVmNDt9JiN4YTs8L3N0eWxlPiYjeGE7CTxwYXRoIGNsYXNzPSJzdDAiIGQ9Ik00My43NTEgMEwwIDI1LjQ2NXYyLjU4OCA0Ni45Mmw0My43NTIgMjUuMTE1IDQzLjU0MS0yNS4xMjFWMjUuNDczem0yLjQzOCAxMS44NTNsMzIuMTAzIDE4Ljc4MlY2OS43N0w0My43MzkgODkuNzA1IDkgNjkuNzYyVjMwLjY0MWwzMi4xOS0xOC43MzZ2MTQuMTU0TDI0LjUwMyAzNi4xNTNsMTkuMTcyIDExLjUwMiAxOC44ODYtMTEuNTU0LTE2LjM3Mi0xMC4wMjR6Ii8+JiN4YTsJPHBhdGggY2xhc3M9InN0MSIgZD0iTTIyLjAyNSA0MC40OTZsLjE2NiAxOS4xNDMtMTMuMjQ3IDcuMzN2Mi43NDJsMi42MzcgMS41MTQgMTIuNjQ4LTYuOTk5IDE2Ljk2MSAxMC42MDJWNTEuOTkzeiIvPiYjeGE7CTxwYXRoIGNsYXNzPSJzdDIiIGQ9Ik02NS4zNDQgNDAuMjZMNDYuMTg5IDUxLjk3OXYyMi44NDdsMTYuODk5LTEwLjU3NiAxMi41MzkgNi45NzQgMi42MDktMS41MDV2LTIuNzY1bC0xMi43ODQtNy4xMTJ6Ii8+JiN4YTs8L3N2Zz4=;shadow=0;strokeColor=default;spacingLeft=40;spacing=10;fontFamily=Helvetica;labelBackgroundColor=#ffffff;resizable=0;fillColor=#F6F6F6;gradientColor=none;" vertex="1" parent="6b7f3959463082b2-1">
          <mxGeometry x="190" y="168" width="37" height="42" as="geometry" />
        </mxCell>
        <mxCell id="_BYcXfdBTYg5R9oibL-n-25" value="&lt;font style=&quot;font-size: 12px;&quot;&gt;Load&amp;nbsp;&lt;/font&gt;&lt;div style=&quot;font-size: 12px;&quot;&gt;&lt;font style=&quot;font-size: 12px;&quot;&gt;Balancer&lt;/font&gt;&lt;/div&gt;" style="text;html=1;align=center;verticalAlign=middle;resizable=0;points=[];autosize=1;strokeColor=none;fillColor=none;fontFamily=Helvetica;fontSize=14;fontColor=default;fontStyle=0;labelBackgroundColor=#ffffff;" vertex="1" parent="6b7f3959463082b2-1">
          <mxGeometry x="179" y="336" width="70" height="40" as="geometry" />
        </mxCell>
        <mxCell id="_BYcXfdBTYg5R9oibL-n-26" style="edgeStyle=orthogonalEdgeStyle;rounded=0;html=1;startArrow=none;startFill=1;endArrow=blockThin;endFill=1;jettySize=auto;orthogonalLoop=1;strokeWidth=2;fontSize=10;fontColor=#999999;align=center;dashed=0;strokeColor=#4284F3;labelBackgroundColor=none;endSize=4;startSize=4;entryX=1;entryY=0.5;entryDx=0;entryDy=0;" edge="1" parent="6b7f3959463082b2-1">
          <mxGeometry relative="1" as="geometry">
            <mxPoint x="792" y="320" as="sourcePoint" />
            <mxPoint x="630" y="320" as="targetPoint" />
            <Array as="points">
              <mxPoint x="795" y="320" />
            </Array>
          </mxGeometry>
        </mxCell>
        <mxCell id="6b7f3959463082b2-3" value="Architecture: API Store - built with FastAPI" style="fillColor=#4DA1F5;strokeColor=none;shadow=1;gradientColor=none;fontSize=14;align=left;spacingLeft=50;fontColor=#ffffff;html=1;" parent="1" vertex="1">
          <mxGeometry x="10" y="40" width="1080" height="40" as="geometry" />
        </mxCell>
        <mxCell id="6b7f3959463082b2-4" value="" style="rounded=1;absoluteArcSize=1;arcSize=2;html=1;strokeColor=none;gradientColor=none;shadow=0;dashed=0;strokeColor=none;fontSize=12;fontColor=#9E9E9E;align=left;verticalAlign=top;spacing=10;spacingTop=-4;fillColor=#E0E0E0;" parent="1" vertex="1">
          <mxGeometry y="740" width="1100" height="30" as="geometry" />
        </mxCell>
        <mxCell id="6b7f3959463082b2-6" style="edgeStyle=orthogonalEdgeStyle;rounded=0;html=1;startArrow=none;startFill=1;endArrow=blockThin;endFill=1;jettySize=auto;orthogonalLoop=1;strokeWidth=2;fontSize=12;fontColor=#000000;align=right;dashed=0;strokeColor=#9E9E9E;labelBackgroundColor=#ffffff;endSize=4;startSize=4;entryX=0.454;entryY=1.033;entryDx=0;entryDy=0;entryPerimeter=0;" parent="1" edge="1">
          <mxGeometry relative="1" as="geometry">
            <Array as="points">
              <mxPoint x="1003.3599999999999" y="395" />
              <mxPoint x="1003.3599999999999" y="395" />
            </Array>
            <mxPoint x="1003.3599999999999" y="495" as="sourcePoint" />
            <mxPoint x="1002.9999999999998" y="276.98" as="targetPoint" />
          </mxGeometry>
        </mxCell>
        <mxCell id="6b7f3959463082b2-7" value="Developer" style="strokeColor=#dddddd;fillColor=#ffffff;shadow=1;strokeWidth=1;rounded=1;absoluteArcSize=1;arcSize=2;labelPosition=center;verticalLabelPosition=middle;align=center;verticalAlign=bottom;spacingLeft=0;fontColor=#999999;fontSize=12;whiteSpace=wrap;spacingBottom=2;html=1;" parent="1" vertex="1">
          <mxGeometry x="963" y="500" width="70" height="85" as="geometry" />
        </mxCell>
        <mxCell id="6b7f3959463082b2-8" value="" style="dashed=0;html=1;fillColor=#757575;strokeColor=none;shape=mxgraph.gcp2.laptop;part=1;" parent="6b7f3959463082b2-7" vertex="1">
          <mxGeometry x="0.5" width="50" height="33" relative="1" as="geometry">
            <mxPoint x="-25" y="18.5" as="offset" />
          </mxGeometry>
        </mxCell>
        <mxCell id="6b7f3959463082b2-9" style="edgeStyle=elbowEdgeStyle;rounded=0;html=1;startArrow=none;startFill=1;endArrow=blockThin;endFill=1;jettySize=auto;orthogonalLoop=1;strokeWidth=2;fontSize=10;fontColor=#999999;align=center;dashed=0;strokeColor=#4284F3;labelBackgroundColor=none;endSize=4;startSize=4;elbow=vertical;exitX=1;exitY=0.5;exitDx=0;exitDy=0;" parent="1" source="6b7f3959463082b2-10" edge="1">
          <mxGeometry relative="1" as="geometry">
            <mxPoint x="41" y="415" as="sourcePoint" />
            <mxPoint x="301" y="415" as="targetPoint" />
          </mxGeometry>
        </mxCell>
        <mxCell id="6b7f3959463082b2-10" value="User" style="strokeColor=#dddddd;fillColor=#ffffff;shadow=1;strokeWidth=1;rounded=1;absoluteArcSize=1;arcSize=2;labelPosition=center;verticalLabelPosition=middle;align=center;verticalAlign=bottom;spacingLeft=0;fontColor=#999999;fontSize=12;whiteSpace=wrap;spacingBottom=2;html=1;" parent="1" vertex="1">
          <mxGeometry x="43" y="373.38" width="70" height="85" as="geometry" />
        </mxCell>
        <mxCell id="6b7f3959463082b2-11" value="" style="dashed=0;html=1;fillColor=#757575;strokeColor=none;shape=mxgraph.gcp2.phone;part=1;" parent="6b7f3959463082b2-10" vertex="1">
          <mxGeometry x="0.5" width="32" height="50" relative="1" as="geometry">
            <mxPoint x="-16" y="10" as="offset" />
          </mxGeometry>
        </mxCell>
        <mxCell id="6b7f3959463082b2-12" style="edgeStyle=orthogonalEdgeStyle;rounded=0;html=1;startArrow=none;startFill=1;endArrow=blockThin;endFill=1;jettySize=auto;orthogonalLoop=1;strokeWidth=2;fontSize=10;fontColor=#999999;align=center;dashed=0;strokeColor=#4284F3;labelBackgroundColor=none;endSize=4;startSize=4;entryX=1;entryY=0.5;entryDx=0;entryDy=0;" parent="1" source="zZrN_HtlgV220wjShuPh-5" target="zZrN_HtlgV220wjShuPh-6" edge="1">
          <mxGeometry relative="1" as="geometry">
            <mxPoint x="912.78" y="167.0999999999999" as="sourcePoint" />
            <mxPoint x="693.22" y="167" as="targetPoint" />
            <Array as="points">
              <mxPoint x="841" y="237" />
              <mxPoint x="841" y="237" />
            </Array>
          </mxGeometry>
        </mxCell>
        <mxCell id="_BYcXfdBTYg5R9oibL-n-28" value="" style="shape=image;verticalLabelPosition=bottom;labelBackgroundColor=default;verticalAlign=top;aspect=fixed;imageAspect=0;image=data:image/png,iVBORw0KGgoAAAANSUhEUgAAA7UAAALICAYAAACgkteeAAAL5XpUWHRSYXcgcHJvZmlsZSB0eXBlIGV4aWYAAHjarZhrlts6DoT/cxWzBL5AkMvh85zZwSx/PtDq7qTzzr12x1JkiiJRhULBbv/vv8f9h1eSkl0WraWV4nnlllvsnFT/er2Owef7eV9DfHqufnXdzerjPYtcsiGvYb7s1zF0rsvHDZqf6+Pr607n6yTWZ6Lni7cJkz3ZHvWMq89EKb6uh+f/rj339fzFdp5/Zfq75bCeVX76f1aCsYT5UnRxp5A8n9meklhBaqlzzHyGVOPbFUbd6+n7sXPvp5+C9+zkm9j5/oxIX4fCvRZr6/4Uo+d6kO/H7kboyxWFt9P49RerfCzqc+zOWfWc/dpdz4VIFfdsyj9T3DMGDkL5ikbhrfwTzvW+G+/KFieILR43eE8XWojE8YQcVujhhH2PM0yWmOOOyjHGGdO9VpPGFucFJds7nKiAsVyqYDVBLXE5vq8l3Oe2+7wZKk9egZExMFngjm/e7nsX/+b9PtE5FtsQLJjzFSvWFY3TLMOQs09GAUg4T0zlxve+3TusHy8DNoGg3DBXNtj9eE0xJHxwK12cE+PEZ+dfqRF0PRMQIp4tLCYkEPAlJAkleI1RQyCOFXw6K48pxwECQSSu4A7YpFQAh2zg2dyj4Y6NEl+XkRaAkFSSAg3pAlg5C/zRXOFQlyTZiUgRlSpNekklFymlaDGN6po0q2hR1apNe001V6mlaq211d5iS0iYtNLUtdpa652Hdqbu3N0Z0fuII408ZJSho442+oQ+M0+ZZeqss82+4kqL9F9lqVt1tdV32FBp5y27bN11t90PXDvp5COnHD31tNPfUXtQ/Rq18Am5n6MWHtQMsXzH6QdqXFZ9myKYnIhhBmIxBxBXQwBCR8PM15BzNOQMM98iSSER1IIYOCsYYiCYd4hywjt2H8j9FDcn+Y9wiz9Czhl0/wZyzqB7kPsWt++gtvrV4XQBsiy0mPp0EDYG7Npj7VaT/vro/ukEP5hoLF/k+LMs0F1ljBS1SdIWR21GrIOS6ipjnj6W9JnORiXLcgdtkdn0QLujKUoX3/tG0gufcxxq/TwqmUcczYMBOZ8Uwzwhdo2JBMiMc/3IMqKiHc1bXso8pTfIBFp9rShtx7Xl7G1YpFO1HNYR+0qBhSbZp4TFiqbFevrtifgQXWxolbbYjSoJkaNuQzCMXUvvS2uCST0gTmyX+hyy8Jdd9XJP/T88up8MUFZY9cya9hpnj4awxyAbHdt9FQQ8+jOKRblvlwcj2ZEvBD+sfLKcVsm6C+TpQsLN5fFjMK/2UlfJdR7Sii9AafdBVKZ3ZEheZUJZYpeY9Jy6yHa7k3zFWCnoLAkK4DXs3Kz+ZbDIYtUn1zFJ++BqjK3J2qdOVjHJDeorT87S2B8pFb2mxb7AbYYBh5ifwEtibJsohaR94na+hZWIQBBqL7OPrbmM1NUf7bNbVEJrFxlt+8HIf3t0HxfYftt1oBiIWBsF/H2l0ozFas/yqmeLtCVqRKw97wwb/KgXHfe92X90fAPLtPbC1feDVctu/QBkcgqmT5W0gm5czUWR6OCF3mZG0utNNq/HkW+iB1j68cvmG/CafBhspGa4fN7HspIfD3Y2ekxzYOgVyAGONyb5xT0zjSK91XiGztbOyLWmflZWRQcHq/X7yWQ0ex2/FY1IIDx1ISUpmiWbXcTcfKVU6MAejdmNHZBB9p5jMCN2ZJNoourEFp/L2gCWR6E4hMhqPX/sKBye0Ter0HwQg7QLnNkllpzYRUGJkxzSuLvppcyUjlrKI+Dneh/I8IptraZ6Lfqhre+CHMwU2OHWwfVNWuzjBwLmFii1oRfUBjO0UlLhIqIS0A0cwqGAMJx8W8idRzwZL7ohANuGz2se3x0KhxLaSH9kmIrlNkKaxHlQFzLpLGWQcAhjDXgiyWZbKY7kPPONVpV0aI66BDAmzalMC8fZiSvnkCPI4EnaD4l5USUoaPKCDrOD9OZq0kUgU+zYmstw2an139cyLasnYIBSm1itst3U5nfv+AJ4wmkijiudBuCKlaaW4/0C5PADyLouUg77uJS0k4WiDOoO2oQbCdOkBFbOk+fSaAwrFFFdKxQr58cIliDYyCsChRpJd0iqLaW20xwIjYMeYWN+9thIBxZAwszS41mrYR4O/RXBf8kIPd2X6fVVyrhfJtjPc/GVXeSWe0+uAAfenou5kikjs3qPddmR6oafWuQMdZP14nlorVleSB25QsHd3HiuvSmEbOYarltceQ6PJ64dTYPK+dgQ+hUGI0A4nYYdJEUn2wet6IjgISlZHSU5mR7dIm5FHcJxOVJlb8GZNypYwX7anHn7XuFpC5ivXemOqMCYw8JzsAaCs7IsQrsHliwC4ZHE3wKKW58y/RYbLzJCfVEwT8/u3WVy/00mY9YW+9E5V/zEZPdXZZqyxLMh9olTKVns0JlQkPspHIqOjqsCpDHkRLbKwspSWNbIWG1vSUWH2ZTgsvne6DsHRpgGs7mQRky9zVq4JSKPMmOBO70qLgs9wcicq1JUALi8aVtJpfvANQTyDNRhYo+JTDwCQAggBSawnET8JyRKMBFW1E09k1WTGfiKeAZbEYunPaXQpFNGjQ5jRA7uxebwXAP+NcSNKsDK8ylMAVnnegTTPO09qz4lnfk6koAPNFfbN8gUVGzG9ip+A6z2eMXr6pqme89tQuyur2+5N7jnjjseG37JN5B0xhwjGPEfr9wpaP5baSSTXrDA93tHdbhQKi7i07Ms+tORWx3BfplJmML++o7OYJgWmzik197GVHzfs02O7u3kD49rsVKPPk4sS8SfoUcKC6Kfg21gbGJWYrqHx0ZHIPkOqlAskovgAdOwLSxTzURQf6ldlKgd0brRpkkJe5wLa0tqWzCOoUirx57poSuluvbZnqKuVtTdziaYt/IfMVe/O77rGBUpsoquaRWzKWq1im9RtWiycMxhU1bNWhJdF8AO9k7z+PTtw+IYUW205fYRlfWxE+wledUmtm7DeRMKpWJ0Gq9O/ejk2ujv3PoZT76kyUOrZ/CLie4XVAQUwv1OLPsd7p1akvsVQQo0W0PQsTIoN8WD+0ag2tG4Trxybgv9o5aQ1oIJRzfZrSDeGNaZ6ursPKB61r442k/aGhLK7OW01PbISrZYdIuFCLaC3MPRzBUOWIacWDjeSxKMyGEko66LB0u9Q1YMct6Xsig6bYKigqql1Kdr+UXT4n6r0vd8aoECPJJaYWsWKJKtx0K6dks70K+dFhQvRjUqhgoNBKYqKKrDkNMBFf6aFTQuhtvTZWKt+L65NaEzvslwNGdUBLAwZ9gtqWNim1DQm+Sn7pkfWfO9BCwIvIdPslqrm0JC3K56BuA3b9CtmmJ0BqVq0mWYEsP8Pjyuoh1R3FxG1WgVT4SsHiRYomJviXheeUxHHaPqICAl0p9SAA75SxMbaGpsYagohaC0kq07tiaJ8kV2mfp0zHFulkrSXLSajVUFqIm5S9Ts9FGzyyBNTtAwrPbkEehSMABdMIjdKFLybEKfhPjDNIKXCtDPCf9M24sRRmllG057zrmnEJRhvyMzw6Rla9YsCZ5x0WLvkwptVkTyX0UT3v31TwjuR1/8WNYSm83ts1tyL7u04POgEsZbYP27VzKuvM1N2f9sWzAmiRTL8wT3/a8aXS4Tk1xMjLF+TVvLb3WQf3eE/WYHCPZbzX2V3PrUXNwNSCLZSoBwNJAaLxNoVH3qgX57k3yDBoeWekbyzdnvML30SQ51OgPusSqwBmI/rS0jL+yHkfNUAf+qA+n+bJ7tJ5VtYrwqPS1VA4MFeXrZO4VyY7vqL4L7+Rv3t8H914It9qseGaSjQ+gQXNqH8oI4zE7DSE40KFRa3jCfjMcf7jn9od2y7kFui0v7unZek6CRzNtSuLh09aRRTBAM054b7MGLiIc1d7HMO4V+kNL5lspkKe3G6rr3pmtBbBxNn0UNkn9bq+ynNJqUhUbiF5ATnLLfCx1BwnDH9ZD9aSbyYTtTewu8Uhpw8WLujqI5kC7/FvP+G6Fz/5DY30xEz9LDH7ukx01SM5r7P8y3PJFu7AfFAAAABmJLR0QA/wD/AP+gvaeTAAAACXBIWXMAABYlAAAWJQFJUiTwAAAAB3RJTUUH4wQSEAoLIo9oKgAAHFJJREFUeNrt3UFyFFeex/GXVcwsZkVvBlfHLIoT9HCCKaRZ22bfWMUJLE6AOIHhBEju3kPYW5DyBuYGqsXEyMKLZt9UZi8QRoBkqaSszPy//HwOQBBPBJFf3vsFKQEAAAAAAAAAAAAAAAAAAAAAAAAAAAAAAAAAAAAAAAAAAAAAAAAAAAAAAAAAAAAAAAAAAAAAAAAAAAAAAAAAAAAAAAAAAAAAAAAAAAAAAAAAAAAAAAAAAAAAAAAAAAAAAAAAAAAAAAAAAAAAAAAAAAAAAAAAAAAAAAAAAAAAAAAAAAAAAAAAAAAAAAAAAAAAAAAAAAAAAAAAAAAAAAAAAAAAAAAAAAAAAAAAAAAAAAAAAAAAAAAAAAAAAAAAAAAAAAAAAAAAAAAAAAAAAAAAAAAAAAAAAAAAAAAAAAAAAAAAEFrhCKAZ39092i3GN/5RvHv3dLecLJwIAACs38gRQIPqarsejw7ubxzNHQYAAIhaiGg6KkbPtjaPD/+6efyt4wAAAFELIeN2nNLzrc03z+azo6njAAAAUQsB1fN6PDrc+t/ffhC3AAAgaiFo29rbAgCAqIXYft/bilsAABC1EDxu7W0BAEDUQlgne1txCwAAohaCx629LQAAiFoIy94WAABELeQSt54kAwCAqIWw7G0BAEDUQh5xa28LAACiFsKytwUAAFELucStJ8kAACBqISx7WwAAELWQR9za2wIAIGqBsOxtAQAQtUAucetJMgAAohYIy94WAABRC+QRt/a2AACIWiAse1sAAEQtkEvcepIMAICoBcKytwUAQNQCecStvS0AAKIWCMveFgAAUQvkEreeJAMAIGqBsOxtAQAQtUAecWtvCwCAqAXCsrcFAEDUArnErSfJAACIWiAse1sAAEQtkEfc2tsCACBqgbDsbQEAELVALnHrSTIAAKIWCMveFgAAUQvkEbf2tgAAiFogLHtbAABELZBN3D73JBkAAFELRPWtvS0AAKIWCO7D3vbXbWcBAICoBSKajoriB3tbAABELRA8bu1tAQAQtUBs9rYAAIhaIDp7WwAARC0Qm70tAACiFsghbu1tAQAQtUBs9rYAAIhaIDp7WwAARC0Qm70tAACiFsghbu1tAQAQtUBs9rYAAIhaIDp7WwAARC0Qm70tAICoBcghbu1tAQBELUBs9rYAAKIWIDp7WwAAUQsQm70tAICoBcghbu1tAQBELUBs9rYAAKIWIDp7WwAAUQsQm70tAICoBcghbu1tAQBELUBs9rYAAKIWIDp7WwAAUQsQm70tAICoBcghbu1tAQBELUBs9rYAAKIWIDp7WwAAUQsQm70tAICoBcghbu1tAQBELUBs9rYAAKIWILr3e9vvNn575CwAAEQtQETToqh27G0BAEQtQOi4fb+3fXPgSTIAgKgFCKqe2dsCAIhagOhxa28LACBqAUKztwUAELUA8ePW3hYAQNQCBGdvCwAgagHix629LQCAqAUIzd4WAEDUAsSPW3tbAABRCxCcvS0AgKgFiB+39rYAAKIWIDR7WwAAUQsQP27tbQEARC1AcPa2AACiFiB+3NrbAgCIWoDQ7G0BAEQtQPy4tbcFAEQtAMHZ2wIAohaA+HE7r8ejA+cAAIhaAKKaOgIAQNQCAACAqAUAAABRCwAAAKIWAAAAUQsAAACiFgAAAEQtAAAAohYAAABELQAAAIhaALqwtfnm2Xx2NHUSAM2azX7+fjZ7/q2TAFELwFrV83o8Ori/cTR3FgBNxOzz2Wz200FK9ZOUxjedCFzfDUcAwAWmo2L0bGvz+FFVV4//tj/ZdSQAK8fsNKXxs5TSzGmAqAWg07h98z/Fcvl4t5wsHAnAhTF7M6Ub36dUb6eU3MzCGnh+DMCK6nk9Hh3a2wJcFLQ/f5/S+DClekfQgqgFoJ9xa28L8EXMnt7NillYN8+PAbgOe1uAjzE7tZsFUQtA6Li1twUGGbN2s9Ahz48BaJC9LTC0oLWbBVELQK5xa28LZByzdrPQF54fA7Au9rZAjjE7tZsFUQvAIOPW3hYIHbN2s9BTnh8D0BJ7WyBq0NrNgqgFgE/j1t4WCBCzdrMQgefHAHTB3hboc8xO7WZB1ALACnFrbwv0ImbtZiEgz48B6AF7W6DroLWbBVELAM3Erb0t0GLM2s1CdJ4fA9A39rZAGzE7tZsFUQsALcStvS3QaMzazUJmPD8GoOfsbYGmgtZuFkQtAHQbt/a2wBVi1m4Wcub5MQCR2NsCq8Ts1G4WRC0A9Dhu7W2BM2PWbhYGxPNjAAKztwU+D1q7WRC1ABAzbg/ub/y67SxgqDFrNwtD5fkxALmYjorih63N4+/tbWFQMTu1mwVRCwCZxe3o2dbm8TfFsnpobwvZxqzdLJBS8vwYgHx9a28LuQat3SwgagEYDHtbyCdm7WaBL3l+DMAQ2NtC7Jid2s0CohYA7G0hWszazQIX8vwYgCGyt4XeB63dLCBqAeAC9rbQv5i1mwVW4/kxAENnbwv9iNmp3SwgagHgWnFrbwsdxKzdLHAtnh8DwKfsbaG1oLWbBUQtAKyJvS2sL2afz2azn3+xmwWa4PkxAJzP3haajdnpx91s7UAAUQsA7cWtvS1cI2Y/7GZ3nAbQNM+PAeDy7G1h5aD9ZDcLIGoBoHv2tnBxzNrNAu3w/BgArsbeFs6O2andLCBqASBU3Nrbgt0s0BXPjwGgGfa2DDho7WYBUQsAmbC3ZUgxazcLdM/zYwBonr0tucfs1G4WELUAMIi4tbclq5i1mwV6x/NjAFg/e1syCFq7WUDUAsDA2dsSMWbtZoF+8/wYANplb0uUmJ3azQKiFgD4g7i1t6WXMWs3C4Ti+TEAdMvelh4Frd0sIGoBgCuxt6XLmLWbBeLy/BgA+sPelrZjdmo3C4haAGANcWtvy1pj1m4WyIbnxwDQX/a2rCFo7WYBUQsAtMreliZi1m4WyJPnxwAQg70tV43Zqd0sIGoBgB7Frb0tl4pZu1lgEDw/BoCY7G35g6C1mwVELQAQgr0tp2PWbhYYHs+PASA+e1sxO7WbBUQtAJBB3NrbDixm7WaBwfP8GADyY287iKC1mwUQtQCQtfd72+82fnvkLHKKWbtZgNM8PwaAvE2LotrZ2jye29uGj9mp3SyAqAWAwcbt+73tm61iuXxgbxsqZu1mAf6A58cAMCj1zN42UtDazQKIWgDgrLi1t+11zNrNAlyW58cAMFz2tv2L2andLICoBQBWjFt7285j1m4W4Io8PwYATtjbdhO0drMAohYAaDJu7W1biVm7WYAmeH4MAJzF3nZ9MTu1mwUQtQBAS3Frb9tYzNrNAqyB58cAwCXY214vaO1mAUQtANCHuLW3XSlmn89ms58O7WYB1sfzYwBgVfa2F8fs9ONuFgBRCwD0Mm7tbb+I2ZspjR+llLb98QBoh+fHAMA12du+D9oPu1lBCyBqAYCIcTvIva3dLEC3PD8GAJo0mL2t3SxAP7iphYb8eDCZF3X1INVp4TQAft/bHuT2JHk2e35zNvvph5OnxoIWQNRCPnb3J7tFVd2tU/3UaQCklNve1m4WQNRC/mFbThY/vvpqu1hWt+tU7TkRgJSi723tZgFELQw0bifzIqV7niQDpJQ+7m0P728czYPE7HQ2++kgpfFBSmnqRwggamF4cfvq1ou9/Vu37W0BPsZt3/e2drMAohb4PG7tbQE+08+9rd0sgKgFzgtbe1uAs+K2F3tbu1kAUQusFLf2tgCndLa3tZsFELXAVePW3hbgi7hta29rNwsgaoGm4tbeFuAz693b2s0CiFqg6bC1twU4K27n9Xh0cH/j10bi8+Spsd0sgKgF1hu39rYAp0xHqfhLQ7/WLNnNAohaoIW4tbcFAABRC+Hj1t4WAABELYQOW3tbAAAQtZBH3NrbAgCAqIXIcWtvCwAAohbCx629LQAAohYIHbb2tgAAiFogj7idzIuiuutJMgAAohaIGbcvJ6W9LQAAohaIHbcne9uiqB47DQAARC0QL2zLyWL35WTH3hYAAFELhI5be1sAAEQtEDtu7W0BABC1QPi4tbcFAEDUAqHD1t4WAABRC+QQt/a2AACIWiB23NrbAgAgaoHwcWtvCwCAqAVCh629LQAAohbIIW7tbQEAELVA7Li1twUAQNQC4ePW3hYAAFELhA5be1sAAEQtkEPc2tsCACBqgdhxa28LAICoBcLHrb0tAACiFggdtva2AACIWiCHuLW3BQBA1AKx49beFgAAUQuEj1t7WwAARC0QOmztbQEAELVADnFrbwsAgKgFYsetvS0AAKIWCB+39rYAAIhaIHTY2tsCACBqgRzi1t4WAABRC8SOW3tbAABELRA+bu1tAQAQtUDosLW3BQBA1AI5xK29LQAAohaIHbf2tgAAiFogfNza2wIAIGqB0GFrbwsAIGodAZBD3NrbAgCIWoDYcWtvCwAgagHCx629LQCAqAUIHbb2tgAAohYgh7i1twUAELUAsePW3hYAQNQChI9be1sAAFELEDps7W0BAEQtQA5xa28LACBqAWLHrb0tAICoBQgft/a2AACiFiB02NrbAgCIWoAc4tbeFgBA1ALEjlt7WwAAUQsQPm7tbQEARC1A6LC1twUAELUAOcStvS0AgKgFiB239rYAAKIWIHzc2tsCAIhagNBha28LACBqAXKIW3tbAABRCxA7bu1tAQBELUD4uN2f7BbVv9+xtwUAELUAMcO2/NNbe1sAAFELEDxuT/a2y3/e8SQZAEDUAgSN2/96bW8LACBqAWLHrb0tAICoBQgdtva2AACiFiB+3NrbAgCIWoDwcWtvCwAgagGix629LQCAqAUIHbb2tgAAohYgftza2wIAiFqA8HFrbwsAIGoBosetvS0AgKgFCB229rYAAKIWIH7c2tsCAKIWgPBxa28LAIhaAKLH7cne1kkAAKIWgJhhW/7prVMAAEQtAAAAiFoAAAAQtQAAACBqAQAAELUAAAAgagEAAEDUAgAAIGoBAABA1AIAAICoBaALRb18mOq0cBIAjdtNafnCMYCoBWCdX1z7f35SVNXdOlV7TgOgEWVKy7tl+fWDsrz31nHA9d1wBAD8YdiWk0VKaT6fHe1U47RTpNGWUwFY2SKl5cOyvOd2FhrmphaAS8ftj68m86KuHniSDHBpb1OqH6e0vCNoYT3c1AKwWtzuT3ZTSrvzjaN5nUaPUpGmTgXg7L8yT25nPTOGNXJTC8CV49beFuBMpd0stMdNLQBXD1t7W4DTFnaz0D43tQA0Erf2tsCA2c1Ch9zUAtBc3NrbAgP8q89uFrrlphaAtcStvS2QudJuFvrBTS0A6wlbe1sgT4uUlg/K8l7pKKAf3NQCsPa4tbcFMnB6NytooUfc1ALQTtza2wJh1U9TqnY8M4Z+clMLQOtxa28LBFG+381+sy1oob/c1ALQftja2wL9trCbhTjc1ALQadza2wI9YjcLAbmpBaD7uLW3BTpnNwtRuakFoFdxa28LtKy0m4XY3NQC0K+wtbcF2rGwm4U8uKkFoLdxa28LrIHdLIhaAIZiPjuadh63+5Pdvf1bt8UtcH3105SWt8vyG9tZELUADOLzbzw6/G7jt0d9+L3Y2wLXUNrNgqgFYKCKotrZ2jw+vL9xNO88bD88SV5Wt8UtcAmL9zH79V1PjUHUAjBs01Exera1eXw4n/3ff/cmbj1JBs5mNwuiFgDOjtt6/G+/bG2+eWZvC/ST3SyIWgC4+KNx/mFvO58d3uxD3NrbwuCVdrMgagFgJUVR7dTj//jF3hbo0MJuFkQtAFyHvS3QBbtZQNQC0Gzc2tsC7bCbBUQtAOv72LS3BdaltJsFRC0ArbC3BRq0sJsFRC0AXbC3Ba7DbhYQtQD0I27tbYHV2M0CohaA/n2k9nRvWz/1s4HeKN/fzNrNAqIWgJ7q3972q217W+jc4tRu9rXjAEQtAH3Xz71tSvc8SYZWvU2pflyWX9+2mwVELQAh47ZXe9tXt17Y20JbPu5mnQUgagGI/nFrbwvDUdrNAqIWgCzZ20LWFnazgKgFYAjsbSEvdrOAqAVgmHFrbwvR2c0CohYAH8X2thBPaTcLiFoAOMXeFkJY2M0CohYAzmdvC/1kNwuIWgBYJW7tbaEv7GYBUQsAV/2YtreF7pR2s4CoBYAG2NtCqxZ2s4CoBYDm2dvCetnNAqIWANqIW3tbaJrdLCBqAaDtj3B7W7i+0m4WELUA0CF7W7iShd0sIGoBoD/sbeFy7GYBUQsAfY5be1s4j90sIGoBIMrHu70tfFTazQKiFgACsrdl4BZ2s4CoBYD47G0ZGrtZQNQCQI5xa29L/uxmAVELALl/9NvbkqPyJGbtZgFRCwBDYG9LJhandrMLxwGIWgAYFntbonqbUnpoNwuIWgAgJXtbQvmwm/36ibMARC0AcDoWTu1texC39rZ8qrSbBUQtAHCh93vb0YG9LT2xsJsFRC0AsKrf97Z/nR3N+hG3k3lRVHc9SR4Mu1lA1DoCALh+3I7Ho4Pe7G1fTkp72yGwmwUQtQDQbGT0cm9bFNVjP5uslHazAKIWANamb3vb3ZeTHXvbLCzsZgFELQC0xd6WptjNAohaAOgubu1tuTq7WQBRCwD9iBN7W1ZR2s0CiFoA6B17Wy6wsJsFELUA0Hf2tnzObhZA1AJAvLi1t8VuFkDUAkD0qLG3HabSbhZA1AJANuxtB2NhNwsgagEgV/a2+bKbBRC1ADCcuLW3zYndLICoBYBhxpC9bWyl3SyAqAWAwbO3DWdhNwsgagGAT9nb9p/dLICoBQAuilt72z6qH9vNAohaAODyEWVv2w/lyW52x24WQNQCACuyt+1K/dpuFkDUAgDNsLdtz8lu9ps7drMAohYAaDhu7W3XyW4WQNQCAG3El71ts0q7WQBRCwC0zN722v84YDcLIGoBgI7Z267ObhZA1AIAfYtbe9vLsJsFELUAQI/Z256jtJsFELUAQBD2tr9Hvt0sgKgFAIIa8t7WbhZA1AIAucTtsPa2drMAuSgcAQDn2do8rp3CMNX1aGdUvdvbLSeLrn8v89k/bqb0z+lu+Z+vr/trzWY/z1J6t/DMGEDUAiBqyd+iqqvHf9uf7DoKAEQtAKKWsHG7XFYP/l5OSkcBQN/Y1AIAF+nV3hYATnNTC8C53NRylj7tbQHATS0AsJI+/f+2AOCmFoBzuanlEhbLlB7+/dWtF44CgC64qQUArmM6Tum5vS0AXXFTC8C53NSy+pfF6Enx7t1Te1sA2uKmFgBoTl1t29sC0CY3tQCcy00t12RvC8DauakFANbF3haAtXNTC8C53NTS7FeHvS0AzXNTCwC0w94WgDVwUwvAudzUskb2tgA0wk0tANAFe1sAGuGmFoBzuamlvS8Se1sArsZNLQDQPXtbAK7ITS0A53JTS0fsbQG4NDe1AEDf2NsCcGluagE4l5ta+vG1Ym8LwPluOAIAoNfqarsejW6mlB44DAA+5/kxAAAAohYAAABELQAAAIhaAAAARC0AAACIWgAAABC1AAAAIGoBAAAQtQAAACBqAQAAQNQCAAAgagEAAEDUAgAAgKgFAAAAUQsAAICoBQAAAFELAAAAohYAAABRCwAAAKIWAAAARC0AAACIWgAAAEQtAAAAiFoAAAAQtQAAAIhaAAAAELUAAAAgagEAAEDUAgAAIGoBAABA1AIAAICoBQAAQNQCAACAqAUAAABRCwAAAKIWAAAAUQsAAACiFgAAAEQtAAAAohYAAABELQAAAIhaAAAAELUAAACIWgAAABC1AAAAIGoBAAAQtQAAACBqAQAAQNQCAACAqAUAAEDUAgAAgKgFAAAAUQsAAACiFgAAAFELAAAAohYAAABELQAAAKIWAAAARC0AAACIWgAAABC1AAAAiFoAAAAQtQAAACBqAQAAELUAAAAgagEAAEDUAgAAgKgFAABA1AIAAICoBQAAAFELAACAqAUAAABRCwAAAKIWAAAARC0AAACiFgAAAEQtAAAAiFoAAABELQAAAIhaAAAAELUAAAAgagEAABC1AAAAIGoBAABA1AIAACBqAQAAQNQCAACAqAUAAABRCwAAgKgFAAAAUQsAAACiFgAAAFELAF+q08IhAACiFoCQ9vZv3S6K6nGqi7dOAwAQtQCEs/tyslNUyzt1qvacBgAgagGIF7blZPHjq8m8WFa3U0qvnQgAIGoBCBm3e69u3Snq6oG9LQAgagGIGbf7k117WwBA1AIQO27tbQEAUQtA6LC1twUARC0AOcStvS0AIGoBiB239rYAgKgFIHzc2tsCAKIWgNBha28LAIhaAHKIW3tbAEDUAhA7bu1tAQBRC0D4uLW3BQBELQChw9beFgAQtQDkELf2tgCAqAUgdtza2wIAohaA8HFrbwsAiFoAQoetvS0AIGoByCFu7W0BAFELQOy4tbcFAEQtAOHj1t4WABC1AIQOW3tbAEDUApBD3NrbAgCiFoDYcWtvCwCiFgDCx629LQCIWgAIHbaf7G3r0okAgKgFgJBxu/fqq7v2tgAgagEgbtx+srcVtwAgagEgYty+nOwUVXXX3hYARC0AxAxbe1sAELUAkEPc2tsCgKgFgNhxa28LAKIWAMLHrb0tAIhaAAgdtva2ACBqASCHuLW3BQBRCwCx49beFgBELQCEj1t7WwAQtQAQOmztbQFA1AJADnFrbwsAohYAYsetvS0AiFoACB+39rYAIGoBIHTY2tsCgKgFgBzi1t4WAEQtAMSOW3tbABC1ABA+bu1tAUDUAkDosLW3BQBRCwA5xK29LQCIWgCIHbf2tgAgagEgfNza2wKAqAWA0GFrbwsAohYAcohbe1sAELUAEDtu7W0BQNQCQPi4tbcFAFELAKHD1t4WAEQtAOQQt/a2ACBqASB23NrbAoCoBYDwcWtvCwCiFgBCh629LQCIWgDIIW7tbQFA1AJA7Li1twUAUQsA4ePW3hYAUQsAhA5be1sARC0AkEPc2tsCIGoBgNhxa28LgKgFAMLHrb0tAKIWAAgdtva2AIhaACCHuLW3BUDUAgCx49beFgBRCwCEj1t7WwBELQAQOmztbQEQtQBADnFrbwuAqAUAYsetvS0AohYACB+39rYAiFoAIHTY2tsCIGoBgBzi1t4WAFELAMSOW3tbAEQtABA+bu1tARC1AEDosLW3BUDUAgA5xK29LQCiFgCIHbf2tgCIWgAgfNza2wIgagGA0GFrbwuAqAUAcohbe1sARC0AEDtu7W0BELUAQPi4tbcFQNQCAKHD1t4WAFELAOQQt/a2AIhaACB23H7Y29bLh+IWAFELAASN2z8/sbcFQNQCAHHD9tO97QsnAoCoBQBCxu3eq6/u2dsCAAAQ3nzj/7fnG0c7TgIAAAAAAAAAAAAAAAAAAAAAAAAAAAAAAAAAAAAAAAAAAAAAAAAAAAAAAAAAAAAAAAAAAAAAAAAAAAAAAAAAAAAAAAAAAAAAAAAAAAAAAAAAAAAAAAAAAAAAAAAAAAAAAAAAAAAAAAAAAAAAAAAAAAAAAAAAAAAAAAAAAAAAAAAAAAAAAAAAAAAAAAAAAAAAAAAAAAAAAAAAAAAAAAAAAAAAAAAAAAAAAAAAAAAAAAAAAAAAAAAAAAAAAAAAAAAAAAAAAAAAAAAAAAAAAAAAAAAAAAAAAAAAAAAAgBb8C70HhvqxspEsAAAAAElFTkSuQmCC;" vertex="1" parent="1">
          <mxGeometry x="903" y="390" width="69" height="51.77" as="geometry" />
        </mxCell>
        <mxCell id="_BYcXfdBTYg5R9oibL-n-29" style="edgeStyle=orthogonalEdgeStyle;rounded=0;html=1;startArrow=none;startFill=1;endArrow=blockThin;endFill=1;jettySize=auto;orthogonalLoop=1;strokeWidth=2;fontSize=10;fontColor=#999999;align=center;dashed=0;strokeColor=#4284F3;labelBackgroundColor=none;endSize=4;startSize=4;entryX=0.5;entryY=0;entryDx=0;entryDy=0;" edge="1" parent="1" target="_BYcXfdBTYg5R9oibL-n-28">
          <mxGeometry relative="1" as="geometry">
            <mxPoint x="937" y="270" as="sourcePoint" />
            <mxPoint x="937" y="310" as="targetPoint" />
            <Array as="points" />
          </mxGeometry>
        </mxCell>
        <mxCell id="_BYcXfdBTYg5R9oibL-n-30" value="terraform" style="text;html=1;align=center;verticalAlign=middle;resizable=0;points=[];autosize=1;strokeColor=none;fillColor=none;fontFamily=Helvetica;fontSize=14;fontColor=default;fontStyle=0;labelBackgroundColor=#ffffff;" vertex="1" parent="1">
          <mxGeometry x="897.5" y="430" width="80" height="30" as="geometry" />
        </mxCell>
        <mxCell id="zZrN_HtlgV220wjShuPh-4" value="" style="strokeColor=#dddddd;fillColor=#ffffff;shadow=1;strokeWidth=1;rounded=1;absoluteArcSize=1;arcSize=2;fontSize=17;fontColor=#000000;align=right;html=1;" vertex="1" parent="1">
          <mxGeometry x="900" y="210" width="160" height="60" as="geometry" />
        </mxCell>
        <mxCell id="zZrN_HtlgV220wjShuPh-3" value="" style="dashed=0;outlineConnect=0;html=1;align=center;labelPosition=center;verticalLabelPosition=bottom;verticalAlign=top;shape=mxgraph.weblogos.github" vertex="1" parent="1">
          <mxGeometry x="1001" y="217.5" width="45" height="45" as="geometry" />
        </mxCell>
        <mxCell id="zZrN_HtlgV220wjShuPh-5" value="GitHub Actions&amp;nbsp;&lt;div&gt;CI/CD&lt;/div&gt;" style="text;html=1;align=center;verticalAlign=middle;resizable=0;points=[];autosize=1;strokeColor=none;fillColor=none;" vertex="1" parent="1">
          <mxGeometry x="901" y="222.5" width="110" height="40" as="geometry" />
        </mxCell>
        <mxCell id="_BYcXfdBTYg5R9oibL-n-27" value="VCS" style="text;html=1;align=center;verticalAlign=middle;resizable=0;points=[];autosize=1;strokeColor=none;fillColor=none;fontFamily=Helvetica;fontSize=14;fontColor=default;fontStyle=0;labelBackgroundColor=#ffffff;" vertex="1" parent="1">
          <mxGeometry x="1001" y="180" width="50" height="30" as="geometry" />
        </mxCell>
      </root>
    </mxGraphModel>
  </diagram>
</mxfile>
